<svg xmlns="http://www.w3.org/2000/svg" xmlns:xlink="http://www.w3.org/1999/xlink" viewBox="116 10 33 36">
  <rect x="116" y="10" width="33" height="36" fill="#ffffff"/>
  <defs>
    <clipPath id="clippath">
      <polyline points="116.42 43.77 132.62 27.56 148.83 43.77"/>
    </clipPath>
    <clipPath id="clippath-1">
      <polyline points="116.46 43.76 132.67 27.55 148.87 43.76"/>
    </clipPath>
  </defs>
  <circle fill="#f97316" cx="132.68" cy="27" r="2.6"/>
  <g>
    <polyline fill="#f97316" points="116.42 43.77 132.62 27.56 148.83 43.77"/>
    <g clip-path="url(#clippath)">
      <path fill="#f97316" d="M132.65,41.76c-2.4,0-4.6-.38-6.59-1.13-1.99-.75-3.73-1.79-5.22-3.13s-2.63-2.91-3.42-4.71c-.79-1.8-1.19-3.75-1.19-5.86s.4-4.06,1.21-5.86,1.95-3.37,3.42-4.71c1.47-1.34,3.21-2.38,5.2-3.13,1.99-.75,4.18-1.13,6.55-1.13s4.64.37,6.64,1.11c1.99.74,3.73,1.78,5.2,3.13,1.47,1.35,2.61,2.93,3.4,4.73.79,1.8,1.19,3.75,1.19,5.86s-.4,4.05-1.19,5.86c-.79,1.8-1.93,3.38-3.4,4.73-1.47,1.35-3.21,2.4-5.2,3.13-1.99.74-4.19,1.11-6.59,1.11Z"/>
    </g>
  </g>
  <path fill="none" stroke="#0a0c0f" stroke-width="5" stroke-miterlimit="10" d="M132.66,40.97c-2.21,0-4.23-.35-6.07-1.04-1.83-.69-3.44-1.65-4.8-2.88-1.37-1.23-2.42-2.68-3.15-4.33-.73-1.66-1.09-3.45-1.09-5.39s.37-3.73,1.11-5.39c.74-1.66,1.79-3.1,3.15-4.33,1.36-1.23,2.95-2.19,4.79-2.88,1.83-.69,3.84-1.04,6.03-1.04s4.27.34,6.1,1.02c1.83.68,3.43,1.64,4.79,2.88,1.36,1.24,2.4,2.69,3.13,4.35.73,1.66,1.09,3.45,1.09,5.39s-.36,3.73-1.09,5.39c-.73,1.66-1.77,3.11-3.13,4.35-1.36,1.24-2.95,2.2-4.79,2.88-1.83.68-3.86,1.02-6.07,1.02Z"/>
  <g>
    <polyline fill="#f97316" points="116.46 43.76 132.67 27.55 148.87 43.76"/>
    <g clip-path="url(#clippath-1)">
      <path fill="#f97316" d="M125.08,43.17c-2.4,0-4.6-.38-6.59-1.13-1.99-.75-3.73-1.79-5.22-3.13s-2.63-2.91-3.42-4.71c-.79-1.8-1.19-3.75-1.19-5.86s.4-4.06,1.21-5.86,1.95-3.37,3.42-4.71c1.47-1.34,3.21-2.38,5.2-3.13,1.99-.75,4.18-1.13,6.55-1.13s4.64.37,6.64,1.11c1.99.74,3.73,1.78,5.2,3.13,1.47,1.35,2.61,2.93,3.4,4.73.79,1.8,1.19,3.75,1.19,5.86s-.4,4.05-1.19,5.86c-.79,1.8-1.93,3.38-3.4,4.73-1.47,1.35-3.21,2.4-5.2,3.13-1.99.74-4.19,1.11-6.59,1.11Z"/>
    </g>
  </g>
</svg>
