<?xml version="1.0" encoding="UTF-8"?>
<svg id="Camada_1" data-name="Camada 1" xmlns="http://www.w3.org/2000/svg" xmlns:xlink="http://www.w3.org/1999/xlink" viewBox="0 0 194.3 56.68">
  <defs>
    <style>
      .cls-1 {
        fill: #fff;
      }

      .cls-2 {
        fill: none;
        stroke: #fff;
        stroke-miterlimit: 10;
        stroke-width: 5px;
      }

      .cls-3 {
        clip-path: url(#clippath-1);
      }

      .cls-4 {
        fill: #f97316;
      }

      .cls-5 {
        clip-path: url(#clippath);
      }
    </style>
    <clipPath id="clippath">
      <polyline class="cls-4" points="116.42 43.77 132.62 27.56 148.83 43.77"/>
    </clipPath>
    <clipPath id="clippath-1">
      <polyline class="cls-4" points="116.46 43.76 132.67 27.55 148.87 43.76"/>
    </clipPath>
  </defs>
  <circle class="cls-4" cx="132.68" cy="27" r="2.6"/>
  <g>
    <polyline class="cls-4" points="116.42 43.77 132.62 27.56 148.83 43.77"/>
    <g class="cls-5">
      <path class="cls-4" d="M132.65,41.76c-2.4,0-4.6-.38-6.59-1.13-1.99-.75-3.73-1.79-5.22-3.13s-2.63-2.91-3.42-4.71c-.79-1.8-1.19-3.75-1.19-5.86s.4-4.06,1.21-5.86,1.95-3.37,3.42-4.71c1.47-1.34,3.21-2.38,5.2-3.13,1.99-.75,4.18-1.13,6.55-1.13s4.64.37,6.64,1.11c1.99.74,3.73,1.78,5.2,3.13,1.47,1.35,2.61,2.93,3.4,4.73.79,1.8,1.19,3.75,1.19,5.86s-.4,4.05-1.19,5.86c-.79,1.8-1.93,3.38-3.4,4.73-1.47,1.35-3.21,2.4-5.2,3.13-1.99.74-4.19,1.11-6.59,1.11ZM136.72,18.62,142.04,23.37,142.04,30.5,136.74,35.25,128.57,35.25,123.2,30.52,123.2,23.35,128.57,18.62"/>
    </g>
  </g>
  <path class="cls-1" d="M9.79,43.71V12.91h6.6v30.8h-6.6ZM12.52,31.74v-5.68h19.18v5.68H12.52ZM12.87,18.85v-5.94h20.68v5.94H12.87Z"/>
  <path class="cls-1" d="M37.29,43.71l13.82-30.8h6.29l13.77,30.8h-6.86l-8.05-18.08c-.26-.53-.52-1.11-.77-1.76-.25-.64-.5-1.29-.75-1.94-.25-.64-.48-1.3-.7-1.96-.22-.66-.42-1.27-.59-1.83h1.41c-.21.65-.42,1.28-.64,1.91-.22.63-.46,1.27-.7,1.91-.25.65-.51,1.28-.77,1.89-.26.62-.53,1.25-.79,1.89l-8.01,17.95h-6.64ZM43.62,37.51l2.2-5.28h16.54l1.5,5.28h-20.24Z"/>
  <path class="cls-1" d="M79.22,43.71V12.91h16.02c2.08,0,3.94.42,5.57,1.25s2.9,1.99,3.81,3.45,1.36,3.15,1.36,5.06-.48,3.62-1.45,5.15-2.27,2.74-3.92,3.63-3.48,1.34-5.5,1.34h-9.5v10.91h-6.38ZM85.6,27.43h8.93c.91,0,1.72-.2,2.42-.59.7-.4,1.27-.93,1.69-1.61.42-.67.64-1.44.64-2.29s-.23-1.64-.68-2.29c-.46-.64-1.07-1.14-1.85-1.5-.78-.35-1.65-.53-2.62-.53h-8.54v8.8ZM99.81,43.71l-9.33-13.9,6.86-1.1,10.21,15.05-7.74-.04Z"/>
  <path class="cls-1" d="M160.53,43.71V12.91h6.6v24.86h17.38v5.94h-23.98Z"/>
  <path class="cls-2" d="M132.66,40.97c-2.21,0-4.23-.35-6.07-1.04-1.83-.69-3.44-1.65-4.8-2.88-1.37-1.23-2.42-2.68-3.15-4.33-.73-1.66-1.09-3.45-1.09-5.39s.37-3.73,1.11-5.39c.74-1.66,1.79-3.1,3.15-4.33,1.36-1.23,2.95-2.19,4.79-2.88,1.83-.69,3.84-1.04,6.03-1.04s4.27.34,6.1,1.02c1.83.68,3.43,1.64,4.79,2.88,1.36,1.24,2.4,2.69,3.13,4.35.73,1.66,1.09,3.45,1.09,5.39s-.36,3.73-1.09,5.39c-.73,1.66-1.77,3.11-3.13,4.35-1.36,1.24-2.95,2.2-4.79,2.88-1.83.68-3.86,1.02-6.07,1.02Z"/>
  <g>
    <polyline class="cls-4" points="116.46 43.76 132.67 27.55 148.87 43.76"/>
    <g class="cls-3">
      <path class="cls-4" d="M125.08,43.17c-2.4,0-4.6-.38-6.59-1.13-1.99-.75-3.73-1.79-5.22-3.13s-2.63-2.91-3.42-4.71c-.79-1.8-1.19-3.75-1.19-5.86s.4-4.06,1.21-5.86,1.95-3.37,3.42-4.71c1.47-1.34,3.21-2.38,5.2-3.13,1.99-.75,4.18-1.13,6.55-1.13s4.64.37,6.64,1.11c1.99.74,3.73,1.78,5.2,3.13,1.47,1.35,2.61,2.93,3.4,4.73.79,1.8,1.19,3.75,1.19,5.86s-.4,4.05-1.19,5.86c-.79,1.8-1.93,3.38-3.4,4.73-1.47,1.35-3.21,2.4-5.2,3.13-1.99.74-4.19,1.11-6.59,1.11ZM129.16,20.03,134.48,24.78,134.48,31.91,129.18,36.66,121.01,36.66,115.64,31.93,115.64,24.76,121.01,20.03"/>
    </g>
  </g>
</svg>